# xmcd
#
# Track frame offsets: 
#        150
#        21128
#        38218
#        57057
#        80637
#        98573
#        125379
#        138913
#        158302
#
# Disc length: 2447 seconds
#
# Revision: 0
# Processed by: cddbd v1.5.2PL0 Copyright (c) Steve Scherf et al.
# Submitted via: ExactAudioCopy v0.95b4
#
DISCID=61098d09
DTITLE=the low lows - shining violence
DYEAR=2008
DGENRE=Bebob
TTITLE0=sparrows
TTITLE1=raining in eva
TTITLE2=modern romance
TTITLE3=elizabeth pier
TTITLE4=tigers
TTITLE5=disappearer
TTITLE6=five ways i didn't die
TTITLE7=it may be low
TTITLE8=honey
EXTD=
EXTT0=
EXTT1=
EXTT2=
EXTT3=
EXTT4=
EXTT5=
EXTT6=
EXTT7=
EXTT8=
PLAYORDER=
